<?xml version="1.0" encoding="UTF-8"?>
<svg xmlns="http://www.w3.org/2000/svg" viewBox="0 0 418.59 87.2">
  <defs>
    <style>
      .cls-1 {
        fill: #fff;
        stroke-width: 0px;
      }
    </style>
  </defs>
  <g id="Brackets">
    <path class="cls-1" d="M27.1,30.8c-.2,7.2-1.3,9.6-6,12.8,4.5,2.9,5.9,5.8,6,12.8v4.8c-.1,6.3.4,6.6,10,6.5v19.2c-1.8,0-3,0-3.6.1l-3.3.1c-1.9.1-3.7.1-5.7.1-9.3,0-12.1-.6-15.2-3.1-2.6-2.2-3.8-5.8-3.8-11.3v-12.4c0-5.5-1.4-7.6-5.5-8.5v-17.7c3.8-.8,5.1-2.4,5.4-6.8l.1-.6v-12.2c0-6,1.4-9.8,4.5-12C13.1.4,15.5,0,24.7,0c2.5,0,3.4,0,7.5.2,2,.1,2.3.1,4.9.1v20.4c-1.2-.1-1.5-.1-2.6-.1-6.9,0-7.4.5-7.4,6.6v3.6Z"/>
    <path class="cls-1" d="M391.49,56.5c.2-7.2,1.4-9.7,6-12.9-4.5-2.8-5.9-5.7-6-12.8v-4.8c0-6.1-.5-6.5-7.7-6.5h-2.3V.4c1.8-.1,3-.1,3.6-.1l3.3-.2c1.9-.1,3.7-.1,5.7-.1,9.3,0,12.1.6,15.2,3.1,2.5,2.1,3.8,5.9,3.8,11.4v12.3c0,5.5,1.4,7.7,5.5,8.5v17.7c-4,.9-5.1,2.3-5.5,7.4v12.2c0,6-1.4,9.8-4.5,12-3.1,2.2-5.5,2.6-14.7,2.6-2.6,0-3.5,0-7.5-.2-2-.1-2.3-.1-4.9-.1v-20.3h2.6c6.9,0,7.4-.5,7.4-6.6v-3.5Z"/>
  </g>
  <g id="BASH">
    <path class="cls-1" d="M75.01,6.72v20.1c7.2-3.4,13-4.8,20.5-4.8,19.2,0,31.4,10.1,31.4,25.9,0,16.6-11.9,26.8-31.1,26.8-8.7,0-13.9-1.7-21.4-6.8l.6,5.5h-22.9V6.72h22.9ZM74.91,48.42c0,6.7,4.7,10.4,13.2,10.4s13.3-3.7,13.3-10.3-4.8-10.2-13.2-10.2-13.3,3.8-13.3,10.1Z"/>
    <path class="cls-1" d="M137.31,38.22c1.7-7.2,4.4-10.7,10.8-13.5,5.3-2.4,13.1-3.6,23.7-3.6,16.2,0,27,2.2,31.8,6.6,3.6,3.2,4.7,6.9,4.7,15.1v19.5c.2,7.3.3,8.2,2.1,11.1h-24l-.5-4.5c-7.6,4.2-14.1,5.8-24.3,5.8-17.9,0-28.4-6.4-28.4-17.3,0-5.7,3.1-9.8,8.9-12,7.1-2.6,18.8-4.3,32.4-4.6,9.1-.2,10.6-.6,10.6-2.4,0-2.6-4.9-4.5-11.8-4.5-6.1,0-9.3,1-10.9,3.3l-25.1,1ZM185.31,50.72c-3,.5-3.4.5-9.2.7-6.6.1-9,.3-10.9.5-3,.5-4.7,2-4.7,4.1,0,2.8,3,4.2,9.2,4.2,11.9,0,15.6-2,15.6-8.2v-1.3Z"/>
    <path class="cls-1" d="M244.11,58.42c1.7,2.7,4.1,3.6,9.4,3.6,4.6,0,6.8-1,6.8-3.1,0-.9-.5-1.5-1.6-1.9q-1-.4-15-2.3c-11-1.4-13.6-1.9-17.5-3.5-6.3-2.6-9.3-6.7-9.3-12.8s2.9-10.6,8.2-13.2c6-3,12.7-4.1,24.4-4.1,14.5,0,24,1.7,29.8,5.5,4.5,2.9,6.3,5.6,7.7,11.6l-29.4-1c-1.3-1.6-3.8-2.3-7.8-2.3-4.6,0-6.4.7-6.4,2.6,0,1.8,1.6,2.4,7.7,2.7,28,1.7,37.6,6.2,37.6,17.8s-11.2,17.5-34.5,17.5c-14.9,0-24.5-1.8-30.3-5.6-4.9-3.3-6.7-6.4-7.5-12.9l27.7,1.4Z"/>
    <path class="cls-1" d="M296.21,6.72h22.9v21.4c7.9-4.5,13.8-6.1,23.1-6.1,8.5,0,14.5,1.7,18.4,5.3,2.5,2.2,4.1,5.1,4.9,8.8.5,2.1.6,5.1.6,12.4v24.9h-22.9v-20.7c0-5.8-.5-8.7-1.7-10.9-1.4-2.4-4.7-3.8-9.2-3.8-5.4,0-9.5,2-11.5,5.7-1.2,2-1.7,4.8-1.7,9v20.7h-22.9V6.72Z"/>
  </g>
</svg>