<svg width="109" height="30" viewBox="0 0 109 30" fill="none" xmlns="http://www.w3.org/2000/svg">
<g clip-path="url(#clip0_292_1780)">
<path d="M109 17.6822C108.999 15.9505 108.999 14.2188 108.999 12.4872C108.999 12.4322 108.992 12.3765 108.988 12.3215C108.916 12.302 108.856 12.2842 108.795 12.2689C107.993 12.0697 107.476 11.5764 107.322 10.7683C107.23 10.2891 107.187 9.79523 107.18 9.30746C107.161 7.92848 107.188 6.54951 107.166 5.17054C107.157 4.58802 107.115 3.99817 107.006 3.42665C106.713 1.87531 105.774 0.899144 104.225 0.525672C103.464 0.341687 102.682 0.294621 101.903 0.301956C100.326 0.317848 98.7486 0.371638 97.1717 0.411369C97.1121 0.412592 97.0525 0.428484 96.9965 0.437042V6.3912C97.0383 6.3912 97.0691 6.39059 97.0998 6.39181C97.7896 6.40892 98.4811 6.39487 99.1672 6.45293C99.8231 6.50795 100.141 6.81296 100.274 7.39059C100.301 7.50672 100.324 7.62653 100.327 7.7445C100.343 8.41137 100.349 9.07885 100.367 9.74572C100.387 10.4817 100.386 11.2194 100.446 11.9523C100.536 13.0489 101.026 13.9462 101.925 14.6082C102.071 14.7158 102.218 14.8221 102.382 14.9419C102.281 15.0116 102.197 15.077 102.107 15.1314C101.176 15.695 100.671 16.5397 100.523 17.5886C100.432 18.2341 100.399 18.8894 100.37 19.5422C100.338 20.3026 100.36 21.066 100.321 21.8258C100.28 22.5966 99.943 22.9309 99.1752 23.0367C98.9809 23.0636 98.7848 23.088 98.5893 23.0917C98.1609 23.0996 97.7324 23.0941 97.2842 23.0941V22.8429C97.2842 20.3741 97.2916 17.9059 97.2793 15.437C97.2762 14.8221 97.2424 14.2029 97.1644 13.5929C96.8687 11.2934 95.6712 9.59474 93.6278 8.48777C92.5175 7.88631 91.3114 7.62286 90.0567 7.55807C88.4633 7.47555 86.9289 7.70538 85.5279 8.50245C84.8757 8.87347 84.2677 9.3209 83.6394 9.73411C83.5816 9.772 83.5251 9.81235 83.4341 9.87469V0.000611247H75.1492V10.8881C75.0914 10.8203 75.0662 10.794 75.0447 10.7653C74.6537 10.2378 74.1902 9.79034 73.6646 9.41259C73.498 9.29279 73.3259 9.18032 73.147 9.07396C71.6974 8.21271 70.0972 7.8368 68.4405 7.65831C67.1077 7.51406 65.7719 7.50428 64.4355 7.6143C63.0148 7.73105 61.6249 7.98961 60.2903 8.49878C58.9956 8.99266 57.8221 9.67604 56.9209 10.7482C56.6301 11.0935 56.3903 11.4817 56.1284 11.849C56.1309 11.8521 56.1119 11.8356 56.1008 11.8148C55.4762 10.632 54.5178 9.78484 53.3664 9.13325C51.5628 8.11369 49.5925 7.70844 47.5485 7.58191C46.2102 7.49878 44.8756 7.54156 43.5471 7.73105C42.1726 7.92726 40.846 8.2824 39.5974 8.90037C37.7181 9.83191 36.3798 11.2329 35.7645 13.261C35.7381 13.3478 35.7098 13.4334 35.671 13.5568C34.5037 10.6443 32.6133 8.52506 29.4831 7.78729C26.3872 7.05746 23.6688 7.84474 21.3672 10.0623C21.3531 10.044 21.3389 10.0263 21.3248 10.0079V0H13.0528V29.3961H20.8926V26.9945C20.9098 26.9853 20.9264 26.9762 20.9437 26.9664C20.9799 27.0159 21.0125 27.0691 21.0537 27.1143C21.6648 27.7836 22.3231 28.4028 23.1039 28.8741C25.178 30.1271 27.3954 30.2745 29.6761 29.61C31.7545 29.0049 33.2988 27.6736 34.4834 25.9028C34.5264 25.838 34.57 25.7732 34.6229 25.6944C34.6487 25.7408 34.6641 25.761 34.6727 25.7842C35.2174 27.3136 36.271 28.3869 37.7114 29.1051C38.7921 29.6443 39.9497 29.8961 41.1509 29.9609C42.6668 30.0428 44.1496 29.8912 45.5635 29.2971C46.7161 28.813 47.744 28.1247 48.7411 27.3857C48.7983 27.3435 48.8573 27.3038 48.9329 27.2512C49.0614 27.9548 49.2636 28.6009 49.5501 29.2219C49.6128 29.3582 49.6804 29.415 49.8409 29.4144C52.3767 29.4083 54.9119 29.4101 57.4477 29.4101H57.6708C57.1797 28.6094 57.0192 27.7604 57.0149 26.8392C57.0739 26.89 57.109 26.915 57.1379 26.9456C57.9426 27.772 58.8942 28.3845 59.9503 28.8423C61.4109 29.4755 62.9478 29.7916 64.5308 29.9138C66.5158 30.0672 68.4823 29.9621 70.4194 29.4878C71.5775 29.2042 72.6724 28.7958 73.6646 28.187C74.1589 27.8845 74.6267 27.5324 75.065 27.121C75.0816 27.1057 75.1012 27.0935 75.1504 27.0575V29.4022H83.4402V29.154C83.4402 25.3631 83.4384 21.5721 83.4433 17.7812C83.4439 17.4175 83.4685 17.0507 83.5177 16.6901C83.6001 16.0837 83.7949 15.5116 84.2025 15.0373C84.8566 14.2757 85.7252 14.0868 86.6781 14.1693C87.7981 14.2659 88.4719 14.9016 88.7823 15.9499C88.9354 16.467 88.992 16.9982 88.992 17.5348C88.9938 21.4077 88.9932 25.2806 88.9938 29.1534V29.412H89.2176C90.0543 29.412 90.8915 29.4077 91.7282 29.4126C93.5896 29.4236 95.4511 29.4322 97.3131 29.4548C98.6877 29.4719 100.063 29.5208 101.438 29.5348C102.35 29.5446 103.268 29.5428 104.161 29.3313C105.61 28.989 106.612 28.1443 106.958 26.6681C107.091 26.1033 107.151 25.5116 107.163 24.9309C107.191 23.5079 107.169 22.0844 107.177 20.6614C107.179 20.3478 107.205 20.0324 107.25 19.7219C107.386 18.7702 107.84 18.0813 108.86 17.8979C109.006 17.8716 109 17.7873 109 17.6822ZM27.712 21.5874C27.286 22.5752 26.6067 23.3038 25.521 23.5654C24.0014 23.9322 22.3502 23.4633 21.5516 21.6375C21.1957 20.8227 21.0611 19.9615 21.0297 19.0831C20.9904 17.9853 21.0937 16.9059 21.5572 15.8912C22.0514 14.8087 22.8438 14.0654 24.0616 13.8912C25.7989 13.643 27.1267 14.4352 27.7691 16.0623C28.1103 16.9248 28.2099 17.8276 28.2167 18.7463C28.2087 19.7213 28.103 20.6809 27.712 21.5874ZM39.7351 17.5575C38.6046 17.7891 37.5436 18.2152 36.5962 18.8894C36.5772 18.9028 36.5538 18.9101 36.5538 18.9101C36.4757 17.8667 36.3983 16.8337 36.319 15.783H42.8764C42.9004 15.4896 42.9023 15.2121 42.949 14.9432C43.1119 14 43.6768 13.3778 44.5725 13.0703C45.5666 12.7292 46.576 12.7366 47.5768 13.0587C47.9493 13.1785 48.2794 13.3765 48.5352 13.6797C49.1265 14.379 48.9698 15.2628 48.1712 15.7084C47.5989 16.0275 46.962 16.1455 46.3282 16.2689C44.1299 16.6962 41.9285 17.1076 39.7351 17.5575ZM48.703 22.6394C48.1214 23.9756 47.077 24.7396 45.6655 25.0312C44.9893 25.1705 44.3057 25.2011 43.6357 24.9939C42.9502 24.783 42.451 24.3778 42.3109 23.6363C42.1775 22.9303 42.4621 22.2818 43.1045 21.9505C43.5115 21.7408 43.9492 21.5837 44.3838 21.4322C45.8512 20.9205 47.3229 20.4211 48.7933 19.9175C48.8579 19.8955 48.9231 19.8747 49.0147 19.8441C49.0226 20.8062 49.0909 21.7476 48.703 22.6394ZM68.4208 23.9811C68.1252 24.2965 67.7459 24.4682 67.3346 24.5685C66.5496 24.7598 65.7615 24.7494 64.9857 24.53C63.9148 24.2262 63.3535 23.4652 63.1267 22.4205C63.1082 22.3344 63.0916 22.2482 63.0689 22.1381H57.0168V18.2207C57.026 18.2219 57.0481 18.2188 57.0573 18.228C58.0612 19.2353 59.2944 19.8551 60.645 20.2311C61.8806 20.5758 63.1377 20.8417 64.3869 21.14C65.3957 21.3808 66.4082 21.6064 67.4127 21.8631C67.6899 21.9334 67.9622 22.0636 68.2057 22.2152C68.8616 22.6235 68.9495 23.4169 68.4208 23.9811ZM75.1332 17.9511C75.116 17.9444 75.0908 17.9419 75.0754 17.9285C75.0226 17.8839 74.9691 17.8405 74.915 17.7983C74.8849 17.7738 74.8547 17.75 74.824 17.7268C74.8025 17.7097 74.7804 17.6932 74.7576 17.6767C74.733 17.6577 74.7084 17.6394 74.6832 17.6216C74.6586 17.6033 74.6328 17.585 74.6076 17.5672C74.5941 17.5575 74.5806 17.5477 74.567 17.5385C74.5363 17.5165 74.5049 17.4951 74.4736 17.4743C74.3408 17.3839 74.205 17.2983 74.0673 17.2176C74.0322 17.1968 73.9972 17.176 73.9615 17.1565C73.9265 17.1363 73.8908 17.1161 73.8552 17.0972C73.7919 17.0623 73.7285 17.0287 73.6646 16.9963C73.656 16.9914 73.648 16.9872 73.6394 16.9835C73.589 16.9578 73.5386 16.9328 73.4882 16.9089C73.4292 16.8802 73.3695 16.8521 73.3099 16.8258C73.1617 16.7586 73.0117 16.6956 72.8599 16.6375C72.8119 16.6192 72.7646 16.6015 72.7167 16.5837C72.6687 16.566 72.6208 16.5489 72.5728 16.5324C72.5384 16.5202 72.5033 16.5086 72.4689 16.4969C72.4068 16.4756 72.3447 16.4554 72.2814 16.4364C72.2482 16.4254 72.2138 16.4156 72.18 16.4053C71.979 16.3441 71.7743 16.2897 71.5677 16.2408C70.2571 15.9303 68.9317 15.6815 67.6143 15.3985C66.7119 15.2048 65.8094 15.011 64.9131 14.791C64.6672 14.7311 64.4287 14.6002 64.2154 14.459C63.4765 13.9694 63.5207 13.1436 64.3021 12.7213C64.8068 12.4487 65.3613 12.3722 65.9219 12.3955C66.3492 12.4126 66.7844 12.456 67.1975 12.5599C68.0655 12.7787 68.4387 13.4279 68.5665 14.2555C68.5708 14.2867 68.5758 14.3178 68.5838 14.371H75.1332V17.9511Z" fill="white"/>
<path d="M11.9955 23.4193V29.4389C11.7508 29.4389 11.5123 29.4365 11.2738 29.4389C9.71539 29.4554 8.15701 29.4847 6.59864 29.4841C5.90214 29.4841 5.20502 29.4132 4.53249 29.2152C3.10322 28.7934 2.27393 27.8234 2.01697 26.3839C1.91369 25.805 1.86943 25.2097 1.85959 24.621C1.83746 23.2427 1.8639 21.8637 1.84607 20.4847C1.83992 20.0153 1.7975 19.541 1.71082 19.0801C1.55345 18.2457 1.01309 17.7531 0.191795 17.5532C0.130321 17.5385 0.0688468 17.5226 0.000610352 17.5055V11.9817C0.0688468 11.9633 0.133395 11.942 0.199787 11.9279C1.07088 11.7433 1.59341 11.2207 1.73295 10.3435C1.79013 9.98474 1.84361 9.62044 1.8473 9.25797C1.86082 7.79098 1.83562 6.32398 1.86512 4.8576C1.87619 4.28975 1.94135 3.7109 2.07414 3.15895C2.43806 1.64733 3.45977 0.77936 4.96404 0.485962C5.6003 0.361879 6.25992 0.312979 6.90909 0.309923C8.1816 0.304421 9.45474 0.355155 10.7279 0.382661C11.0131 0.388774 11.2977 0.394275 11.583 0.402832C11.7151 0.4065 11.8473 0.415668 11.9918 0.423003V6.74513C11.9235 6.74513 11.8504 6.74269 11.7778 6.74513C11.1453 6.76714 10.509 6.75613 9.88075 6.82154C9.07667 6.90528 8.74041 7.27264 8.70414 8.08498C8.66541 8.95234 8.69184 9.82215 8.65311 10.6895C8.62668 11.272 8.56397 11.8558 8.46869 12.431C8.32484 13.2971 7.90313 14.011 7.16912 14.5269C6.99392 14.6498 6.82794 14.7861 6.64536 14.9254C6.80274 15.0373 6.95089 15.1412 7.09781 15.247C7.99411 15.8924 8.50189 16.7775 8.57381 17.8594C8.65065 19.0135 8.63221 20.173 8.66356 21.3301C8.6734 21.6877 8.69369 22.0471 8.74225 22.4016C8.81295 22.9193 9.11786 23.2396 9.64223 23.3393C10.3639 23.4768 11.0918 23.4578 11.8203 23.4322C11.8756 23.4303 11.9303 23.4242 11.9961 23.4193H11.9955Z" fill="white"/>
</g>
<defs>
<clipPath id="clip0_292_1780">
<rect width="109" height="30" fill="white"/>
</clipPath>
</defs>
</svg>
